
<svg version="1.1" id="Capa_1" xmlns="http://www.w3.org/2000/svg" xmlns:xlink="http://www.w3.org/1999/xlink" x="0px" y="0px"
	 viewBox="0 0 468.268 468.268" style="enable-background:new 0 0 468.268 468.268;" xml:space="preserve">
<path style="fill:#64798A;" d="M65.786,137.486h32.825L79.998,68.792C74.227,47.588,62.211,29.331,46.075,16.02
	C38.063,9.305,28.995,3.887,19.217,0c6.715,38.989,13.312,82.809,19.435,127.571L65.786,137.486z"/>
<path style="fill:#3A556A;" d="M35.826,107.547l38.093,322.969l101.49-91.797l-42.864-157.356
	C120.622,137.774,81.016,107.547,35.826,107.547L35.826,107.547z"/>
<path style="fill:#2F4859;" d="M449.05,424.611v5.928H73.873v-5.928c0-51.503,41.751-93.254,93.254-93.254h188.669
	C407.299,331.356,449.05,373.108,449.05,424.611z"/>
<rect x="73.872" y="430.018" style="fill:#D5D6DB;" width="341.804" height="38.25"/>
<g>
</g>
<g>
</g>
<g>
</g>
<g>
</g>
<g>
</g>
<g>
</g>
<g>
</g>
<g>
</g>
<g>
</g>
<g>
</g>
<g>
</g>
<g>
</g>
<g>
</g>
<g>
</g>
<g>
</g>
</svg>
